{
  "asset": {
    "version": "2.0",
    "generator": "THREE.GLTFExporter"
  },
  "scenes": [
    {
      "name": "AuxScene",
      "nodes": [
        0
      ]
    }
  ],
  "scene": 0,
  "nodes": [
    {
      "matrix": [
        0.4699872136116028,
        0,
        0,
        0,
        0,
        0.4699872136116028,
        0,
        0,
        0,
        0,
        0.4804327189922333,
        0,
        0,
        0,
        14.946279525756836,
        1
      ],
      "name": "Diamond_Round",
      "extras": {
        "name": "Diamond_Round",
        "attributes": {
          "mode": {
            "name": "ObjectMode_Normal",
            "value": 0
          },
          "isInstanceDefinitionObject": false,
          "visible": true,
          "name": "",
          "castsShadows": true,
          "receivesShadows": true,
          "linetypeSource": {
            "name": "ObjectLinetypeSource_LinetypeFromLayer",
            "value": 0
          },
          "colorSource": {
            "name": "ObjectColorSource_ColorFromLayer",
            "value": 0
          },
          "plotColorSource": {
            "name": "ObjectPlotColorSource_PlotColorFromLayer",
            "value": 0
          },
          "plotWeightSource": {
            "name": "ObjectPlotWeightSource_PlotWeightFromLayer",
            "value": 0
          },
          "id": "e8ec57df-1356-4f4b-9d93-8a58e0dc36cc",
          "url": "",
          "layerIndex": 11,
          "materialIndex": -1,
          "materialSource": {
            "name": "ObjectMaterialSource_MaterialFromLayer",
            "value": 0
          },
          "objectColor": {
            "r": 0,
            "g": 0,
            "b": 191,
            "a": 255
          },
          "plotColor": {
            "r": 0,
            "g": 0,
            "b": 0,
            "a": 255
          },
          "displayOrder": 0,
          "plotWeight": 0,
          "objectDecoration": {
            "name": "ObjectDecoration_None",
            "value": 0
          },
          "wireDensity": 1,
          "viewportId": "00000000-0000-0000-0000-000000000000",
          "activeSpace": {
            "name": "ActiveSpace_ModelSpace",
            "value": 1
          },
          "groupCount": 0,
          "isValid": true,
          "userStringCount": 0,
          "geometry": {
            "parentIdefId": "159dfba3-9dcd-418d-9770-989cdfca0775",
            "xform": {
              "isAffine": true,
              "isIdentity": false,
              "isLinear": false,
              "isRotation": false,
              "isValid": true,
              "isZero": false,
              "isZero4x4": false,
              "isZeroTransformation": false,
              "rigidType": {
                "name": "TransformRigidType_NotRigid",
                "value": 0
              },
              "similarityType": {
                "name": "TransformSimilarityType_NotSimilarity",
                "value": 0
              },
              "m00": 0.4699872258797286,
              "m01": 0,
              "m02": 0,
              "m03": 0,
              "m10": 0,
              "m11": 0.4699872258797286,
              "m12": 0,
              "m13": 0,
              "m20": 0,
              "m21": 0,
              "m22": 0.4804327162629624,
              "m23": 14.946279187930065,
              "m30": 0,
              "m31": 0,
              "m32": 0,
              "m33": 1
            },
            "objectType": {
              "name": "ObjectType_InstanceReference",
              "value": 4096
            },
            "isDeformable": true,
            "hasBrepForm": false,
            "isValid": true,
            "userStringCount": 0
          },
          "drawColor": {
            "r": 130,
            "g": 180,
            "b": 250,
            "a": 255
          }
        },
        "objectType": "InstanceReference",
        "defAttributes": {
          "mode": {
            "name": "ObjectMode_InstanceDefinitionObject",
            "value": 3
          },
          "isInstanceDefinitionObject": true,
          "visible": true,
          "name": "Diamond_Round",
          "castsShadows": true,
          "receivesShadows": true,
          "linetypeSource": {
            "name": "ObjectLinetypeSource_LinetypeFromLayer",
            "value": 0
          },
          "colorSource": {
            "name": "ObjectColorSource_ColorFromParent",
            "value": 3
          },
          "plotColorSource": {
            "name": "ObjectPlotColorSource_PlotColorFromLayer",
            "value": 0
          },
          "plotWeightSource": {
            "name": "ObjectPlotWeightSource_PlotWeightFromLayer",
            "value": 0
          },
          "id": "d4ed12c0-e25f-4bc9-98ea-18b6877f29af",
          "url": "",
          "layerIndex": 33,
          "materialIndex": 34,
          "materialSource": {
            "name": "ObjectMaterialSource_MaterialFromParent",
            "value": 3
          },
          "objectColor": {
            "r": 0,
            "g": 0,
            "b": 0,
            "a": 255
          },
          "plotColor": {
            "r": 0,
            "g": 0,
            "b": 0,
            "a": 255
          },
          "displayOrder": 0,
          "plotWeight": 0,
          "objectDecoration": {
            "name": "ObjectDecoration_None",
            "value": 0
          },
          "wireDensity": 1,
          "viewportId": "00000000-0000-0000-0000-000000000000",
          "activeSpace": {
            "name": "ActiveSpace_ModelSpace",
            "value": 1
          },
          "groupCount": 0,
          "isValid": true,
          "userStringCount": 0,
          "geometry": {
            "isSolid": true,
            "isManifold": true,
            "isSurface": false,
            "objectType": {
              "name": "ObjectType_Brep",
              "value": 16
            },
            "isDeformable": false,
            "hasBrepForm": true,
            "isValid": true,
            "userStringCount": 0
          },
          "drawColor": {
            "r": 0,
            "g": 0,
            "b": 128,
            "a": 255
          }
        },
        "defObjectType": "Brep",
        "rhinoLayer": {
          "name": "Gem 03",
          "fullPath": "Gem 03",
          "id": "515f99b8-d8d2-479d-a83c-187fdd25e338",
          "parentLayerId": "00000000-0000-0000-0000-000000000000",
          "igesLevel": -1,
          "color": {
            "r": 130,
            "g": 180,
            "b": 250,
            "a": 255
          },
          "plotColor": {
            "r": 130,
            "g": 180,
            "b": 250,
            "a": 255
          },
          "plotWeight": 0,
          "linetypeIndex": -1,
          "renderMaterialIndex": 10,
          "visible": true,
          "locked": false,
          "expanded": true,
          "isValid": true,
          "userStringCount": 0
        },
        "rhino3dmRoot": "51bfb7cf-ed6d-4297-9397-4d9290df6ecd",
        "strings": [],
        "gltfUUID": "d22d6c46-5a21-4a34-a2ec-f763f522e02d",
        "gltfExtensions": {
          "WEBGI_object3d_extras": {
            "castShadow": true,
            "receiveShadow": true
          }
        }
      },
      "mesh": 0
    }
  ],
  "bufferViews": [
    {
      "buffer": 0,
      "byteOffset": 0,
      "byteLength": 6864,
      "target": 34962,
      "byteStride": 12
    },
    {
      "buffer": 0,
      "byteOffset": 6864,
      "byteLength": 6864,
      "target": 34962,
      "byteStride": 12
    },
    {
      "buffer": 0,
      "byteOffset": 13728,
      "byteLength": 4576,
      "target": 34962,
      "byteStride": 8
    },
    {
      "buffer": 0,
      "byteOffset": 18304,
      "byteLength": 1908,
      "target": 34963
    }
  ],
  "buffers": [
    {
      "byteLength": 20212,
      "uri": "data:application/octet-stream;base64,"
    }
  ],
  "accessors": [
    {
      "bufferView": 0,
      "componentType": 5126,
      "count": 572,
      "max": [
        5.000135898590088,
        5.000135898590088,
        1.756980538368225
      ],
      "min": [
        -5.000135898590088,
        -5.000135898590088,
        -4.466575622558594
      ],
      "type": "VEC3"
    },
    {
      "bufferView": 1,
      "componentType": 5126,
      "count": 572,
      "max": [
        0.9987682104110718,
        0.9988224506378174,
        1
      ],
      "min": [
        -0.9987682104110718,
        -0.9988224506378174,
        -0.7575649619102478
      ],
      "type": "VEC3"
    },
    {
      "bufferView": 2,
      "componentType": 5126,
      "count": 572,
      "max": [
        0.9521497488021851,
        0.9520473480224609
      ],
      "min": [
        0.04785023629665375,
        0.04795268177986145
      ],
      "type": "VEC2"
    },
    {
      "bufferView": 3,
      "componentType": 5123,
      "count": 954,
      "max": [
        571
      ],
      "min": [
        0
      ],
      "type": "SCALAR"
    }
  ],
  "meshes": [
    {
      "primitives": [
        {
          "mode": 4,
          "attributes": {
            "POSITION": 0,
            "NORMAL": 1,
            "TEXCOORD_0": 2
          },
          "indices": 3
        }
      ]
    }
  ]
}